<?xml version="1.0" encoding="utf-8"?>
<!-- Generator: Adobe Illustrator 25.2.0, SVG Export Plug-In . SVG Version: 6.00 Build 0)  -->
<svg version="1.1" id="Layer_1" xmlns="http://www.w3.org/2000/svg" xmlns:xlink="http://www.w3.org/1999/xlink" x="0px" y="0px"
	 viewBox="0 0 668.02 142.29" style="enable-background:new 0 0 668.02 142.29;" xml:space="preserve">
<style type="text/css">
	.st0{fill:#6C6963;}
	.st1{fill:#427FBA;}
</style>
<g>
	<g>
		<path class="st0" d="M379.64,20.33h82.19v15.36h-32.28v86.18h-17.78V35.69h-32.14V20.33z"/>
		<path class="st0" d="M462.38,89.29c0,11.52,6.26,21.76,19.77,21.76c9.53,0,15.07-4.12,17.92-12.23h15.36
			c-3.41,16.07-17.35,25.03-33.28,25.03c-23.18,0-35.98-15.93-35.98-38.68c0-20.9,13.65-38.82,35.55-38.82
			c23.18,0,37.4,20.9,34.7,42.95H462.38z M500.2,78.62c-0.71-10.24-7.4-19.48-18.49-19.48c-11.23,0-18.91,8.53-19.34,19.48H500.2z"
			/>
		<path class="st0" d="M578.42,72.93c-1.28-9.1-7.68-13.79-16.78-13.79c-8.39,0-20.19,4.55-20.19,26.74
			c0,12.23,5.4,25.17,19.48,25.17c9.53,0,15.93-6.12,17.49-16.78h16.21c-2.99,19.2-14.79,29.58-33.7,29.58
			c-23.04,0-35.69-16.35-35.69-37.97c0-22.18,12.09-39.53,36.26-39.53c17.06,0,31.57,8.53,33.13,26.59H578.42z"/>
		<path class="st0" d="M603.46,20.33h16.21v37.68h0.28c3.98-6.68,12.37-11.66,22.04-11.66c16.07,0,26.02,8.39,26.02,25.03v50.48
			h-16.21V75.65c-0.43-11.52-4.69-16.5-14.36-16.5c-10.81,0-17.78,8.53-17.78,19.34v43.37h-16.21V20.33z"/>
	</g>
	<path class="st1" d="M170.6,20.33h25.03l28.01,79.49h0.29l27.3-79.49h24.74v101.53h-16.92V43.51h-0.28l-28.16,78.36h-14.65
		l-28.16-78.36h-0.28v78.36H170.6V20.33z"/>
	<path class="st1" d="M300.68,89.29c0,11.52,6.26,21.76,19.77,21.76c9.53,0,15.07-4.12,17.92-12.23h15.36
		c-3.41,16.07-17.35,25.03-33.28,25.03c-23.18,0-35.98-15.93-35.98-38.68c0-20.9,13.65-38.82,35.55-38.82
		c23.18,0,37.4,20.9,34.7,42.95H300.68z M338.51,78.62c-0.71-10.24-7.4-19.48-18.49-19.48c-11.23,0-18.91,8.53-19.34,19.48H338.51z"
		/>
	<g>
		<path class="st1" d="M142.25,69.48c-0.53-23.15-12.11-43.55-29.68-56.16L99.18,26.8l14.52,14.57L142.25,69.48z"/>
		<path class="st1" d="M16.85,58.97l0.23,0.23l0.23-0.23l35.21,35.28l35.21-35.28l4.68,4.62l41.65,40.8
			c2.4-4.53,4.32-9.35,5.7-14.39L87.76,38.3L52.51,73.76L40.85,62.15l56.7-57.07C89.38,1.82,80.48,0,71.15,0
			C31.85,0,0,31.85,0,71.15c0,1.54,0.07,3.06,0.16,4.57L16.85,58.97z"/>
		<path class="st1" d="M87.53,81.45l-35.01,35.31L17.11,82.05L4.14,95.08c9.83,27.52,36.11,47.22,67.01,47.22
			c21.28,0,40.36-9.35,53.4-24.16L87.53,81.45z"/>
	</g>
</g>
</svg>
